# xmcd
# 
# Track frame offsets:
#     150
#     20145
#     51880
#     65902
#     83992
#     116597
#     126100
#     160072
#     175035
#     188610
#     205520
#     210332
#     241512
# 
# Disc length: 3276
# 
# Revision: 3
# Processed by: cddbd v1.5.2PL0 Copyright (c) Steve Scherf et al.
# Submitted via: fre:ac v1.0.31
# 
DISCID=a70cca0d
DTITLE=The Waterboys - Fisherman's Blues
DYEAR=1988
DGENRE=Folk/Country
TTITLE0=Fisherman's Blues
TTITLE1=We Will Not Be Lovers
TTITLE2=Strange Boat
TTITLE3=World Party
TTITLE4=Sweet Thing
TTITLE5=Jimmy Hickey's Waltz
TTITLE6=And a Bang on the Ear
TTITLE7=Has Anybody Here Seen Hank?
TTITLE8=When Will We Be Married?
TTITLE9=When Ye Go Away
TTITLE10=Dunford's Fancy
TTITLE11=The Stolen Child
TTITLE12=This Land Is Your Land
EXTD=
EXTT0=
EXTT1=
EXTT2=
EXTT3=
EXTT4=
EXTT5=
EXTT6=
EXTT7=
EXTT8=
EXTT9=
EXTT10=
EXTT11=
EXTT12=
PLAYORDER=
